<svg width="203" height="89" viewBox="0 0 203 89" fill="none" xmlns="http://www.w3.org/2000/svg">
<path fill-rule="evenodd" clip-rule="evenodd" d="M195.295 77.8852C196.733 77.8852 200.181 77.8852 201.428 79.023C202.577 80.0636 201.906 82.2442 200.757 82.811C200.374 83.0971 199.895 83.001 199.321 83.1899V83.4738C199.704 83.6638 199.895 83.7599 200.182 84.0427C201.142 85.0855 201.62 86.5051 202.291 87.7369C202.483 88.0208 202.674 88.3997 202.866 88.7797H198.266C197.691 87.644 197.307 86.3173 196.541 85.4655C196.444 85.2755 196.349 85.2755 196.349 85.1795C196.157 84.9895 195.966 84.6127 195.678 84.5166C195.103 84.3267 194.24 84.4227 193.475 84.4227V88.7797H188.97V77.8852H195.295ZM193.476 79.9697V82.3382C194.625 82.3382 197.115 82.4342 197.596 81.6753C197.691 81.4854 197.786 81.2964 197.691 80.8225C197.213 80.2536 197.115 80.2536 196.35 80.1597C195.582 79.9697 194.337 79.9697 193.476 79.9697ZM124.482 78.0741H136.841V80.1586H132.817V88.7786H128.409V80.1586H124.48C124.482 79.4958 124.384 78.4541 124.482 78.0741ZM171.435 88.7797H165.686L163.29 80.6325L161.279 88.7797H155.528L152.079 78.0752H156.391L158.403 86.1283L160.703 78.0752H166.26L168.658 86.0323L170.669 78.0752H174.884L171.435 88.7797ZM143.166 77.7913C146.615 77.5073 150.352 78.4541 151.696 80.2536C152.078 80.8225 152.269 81.3914 152.461 82.2443C153.324 86.2223 150.257 88.4957 146.713 88.8736C143.454 89.2525 139.907 88.7797 138.088 87.454C137.225 86.6951 136.555 85.7484 136.363 84.3267C135.692 79.7797 139.237 78.0741 143.166 77.7913ZM143.358 79.9697C141.633 80.2536 140.484 81.9582 140.867 83.9499C141.059 85.4655 141.633 86.1284 142.976 86.5062C149.204 88.5897 150.162 78.9269 143.358 79.9697ZM175.747 80.5386H187.724V78.0741H175.747V80.5386ZM175.747 84.7056H187.724V82.1482H175.747V84.7056ZM175.747 88.7797H187.724V86.3173H175.747V88.7797ZM16.8694 82.4332V77.9802H23.8648C25.0147 80.3486 26.1646 82.7171 27.4106 85.0845C28.5605 82.62 29.7103 80.4415 30.8602 77.9802H37.5684V88.7786H33.3522V80.7275L29.1359 88.7786H25.0147L21.1817 80.6315V88.7786H15.9117L11.025 81.5803L6.04211 88.7786H0.865997L11.0239 74L16.8694 82.4332ZM87.1086 80.6325C87.2047 79.6858 87.3008 79.213 87.3958 78.2641C85.6704 77.8852 83.5628 77.5073 81.3591 77.6952C77.4301 77.9812 72.5434 79.4969 73.3099 83.9488C73.5021 85.1784 73.9804 86.1273 74.7481 86.7901C76.8568 88.3997 80.4975 89.0625 84.1394 88.7786C85.0021 88.6847 86.4392 88.5886 87.3969 88.3997L87.2058 86.1273C84.1394 86.7901 79.827 87.168 78.2939 84.7995C78.0341 84.4677 77.8486 84.0853 77.7496 83.6773C77.6506 83.2694 77.6403 82.8453 77.7195 82.4332C78.3889 81.1054 79.2516 79.023 87.1086 80.6325ZM67.3694 77.8852H71.6817V88.7797H67.3694V77.8852ZM105.604 77.8852H111.352L116.622 85.0856V77.8852H120.649V88.7797H115.186L109.628 81.4854V88.7797H105.604V77.8852ZM58.8408 77.8852C60.279 77.8852 63.6325 77.8852 64.8774 79.023C66.1234 80.0636 65.4529 82.2442 64.303 82.811C63.8236 83.0971 63.3443 83.0971 62.7699 83.1899V83.4738C63.2492 83.6638 63.3453 83.7599 63.6325 84.0427C64.5913 85.0855 65.0696 86.5051 65.8373 87.7369C65.9323 88.0208 66.1245 88.3997 66.3167 88.7797H61.7171C61.2378 87.644 60.7594 86.3173 60.0879 85.4655L59.8007 85.1795C59.6085 84.9895 59.4174 84.6127 59.2263 84.5166C58.6508 84.3267 57.6931 84.4227 56.9265 84.4227V88.7797H52.518V77.8852H58.8408ZM56.9243 79.9697V82.3382C58.1703 82.3382 60.6612 82.4342 61.0445 81.7693C61.2367 81.4854 61.2367 81.2964 61.1406 80.8225C60.7584 80.2536 60.6623 80.2536 59.7996 80.1597C59.033 79.9697 57.882 79.9697 56.9243 79.9697ZM93.3374 86.4112C93.2424 86.5051 92.2836 88.4957 92.0925 88.7797H87.6841L93.8168 77.8852H99.1829L105.507 88.7797H100.716C100.333 87.9268 99.8534 87.1679 99.4701 86.4112H93.3374ZM94.4873 84.3267H98.3203L96.5949 80.2536H96.3077L94.4873 84.3267ZM38.9094 80.4426H50.9827V77.8852H38.9094V80.4426ZM39.0055 84.6116H50.9827V82.0543H39.0055V84.6116ZM39.0055 88.7797H50.9827V86.3173H39.0055V88.7797Z" fill="#6B6B6B"/>
<path fill-rule="evenodd" clip-rule="evenodd" d="M63.866 58L103.866 0V30.3533L86.2586 58H63.866Z" fill="#6B6B6B"/>
<path fill-rule="evenodd" clip-rule="evenodd" d="M122.218 58L103.866 30.3533V0L144.866 58H122.218Z" fill="#6B6B6B"/>
</svg>
