<svg width="25" height="24" viewBox="0 0 25 24" fill="none" xmlns="http://www.w3.org/2000/svg">
<path d="M13.2 15.3L15.8 12.7C16 12.5 16.1 12.2667 16.1 12C16.1 11.7333 16 11.5 15.8 11.3L13.175 8.675C12.9917 8.49167 12.7623 8.40433 12.487 8.413C12.2117 8.42167 11.9827 8.51733 11.8 8.7C11.6167 8.88334 11.525 9.11667 11.525 9.4C11.525 9.68333 11.6167 9.91667 11.8 10.1L12.7 11H9.475C9.19167 11 8.95833 11.096 8.775 11.288C8.59167 11.48 8.5 11.7173 8.5 12C8.5 12.2833 8.596 12.521 8.788 12.713C8.98 12.905 9.21733 13.0007 9.5 13H12.7L11.775 13.925C11.5917 14.1083 11.504 14.3377 11.512 14.613C11.52 14.8883 11.616 15.1173 11.8 15.3C11.9833 15.4833 12.2167 15.575 12.5 15.575C12.7833 15.575 13.0167 15.4833 13.2 15.3ZM12.5 22C11.1167 22 9.81667 21.7373 8.6 21.212C7.38333 20.6867 6.325 19.9743 5.425 19.075C4.525 18.175 3.81267 17.1167 3.288 15.9C2.76333 14.6833 2.50067 13.3833 2.5 12C2.5 10.6167 2.76267 9.31667 3.288 8.1C3.81333 6.88333 4.52567 5.825 5.425 4.925C6.325 4.025 7.38333 3.31233 8.6 2.787C9.81667 2.26167 11.1167 1.99933 12.5 2C13.8833 2 15.1833 2.26267 16.4 2.788C17.6167 3.31333 18.675 4.02567 19.575 4.925C20.475 5.825 21.1877 6.88333 21.713 8.1C22.2383 9.31667 22.5007 10.6167 22.5 12C22.5 13.3833 22.2373 14.6833 21.712 15.9C21.1867 17.1167 20.4743 18.175 19.575 19.075C18.675 19.975 17.6167 20.6877 16.4 21.213C15.1833 21.7383 13.8833 22.0007 12.5 22ZM12.5 20C14.7167 20 16.6043 19.221 18.163 17.663C19.7217 16.105 20.5007 14.2173 20.5 12C20.5 9.78333 19.721 7.89567 18.163 6.337C16.605 4.77834 14.7173 3.99933 12.5 4C10.2833 4 8.39567 4.779 6.837 6.337C5.27833 7.895 4.49933 9.78267 4.5 12C4.5 14.2167 5.279 16.1043 6.837 17.663C8.395 19.2217 10.2827 20.0007 12.5 20Z" fill="#1E1E1E"/>
</svg>
