<svg width="40" height="55" viewBox="0 0 40 55" fill="none" xmlns="http://www.w3.org/2000/svg">
<path d="M32.5 36.1125V53.2925C32.5 53.5137 32.4414 53.7309 32.3301 53.922C32.2188 54.1131 32.0587 54.2712 31.8663 54.3803C31.6739 54.4893 31.456 54.5453 31.2348 54.5427C31.0137 54.54 30.7972 54.4787 30.6075 54.365L20 48L9.3925 54.365C9.20261 54.4788 8.9859 54.5401 8.76454 54.5427C8.54317 54.5452 8.3251 54.489 8.13261 54.3797C7.94012 54.2703 7.78012 54.1118 7.66897 53.9204C7.55782 53.7289 7.49951 53.5114 7.5 53.29V36.115C4.26537 33.5252 1.91498 29.9947 0.773648 26.0113C-0.367686 22.028 -0.24361 17.7885 1.12873 13.8787C2.50107 9.96889 5.05391 6.58187 8.43446 4.18569C11.815 1.78952 15.8564 0.502502 20 0.502502C24.1436 0.502502 28.185 1.78952 31.5655 4.18569C34.9461 6.58187 37.4989 9.96889 38.8713 13.8787C40.2436 17.7885 40.3677 22.028 39.2264 26.0113C38.085 29.9947 35.7346 33.5252 32.5 36.115V36.1125ZM12.5 39.045V46.67L20 42.17L27.5 46.67V39.045C25.1171 40.0087 22.5704 40.5028 20 40.5C17.4296 40.5028 14.8829 40.0087 12.5 39.045ZM20 35.5C23.9782 35.5 27.7936 33.9196 30.6066 31.1066C33.4197 28.2936 35 24.4782 35 20.5C35 16.5218 33.4197 12.7064 30.6066 9.8934C27.7936 7.08035 23.9782 5.5 20 5.5C16.0218 5.5 12.2064 7.08035 9.3934 9.8934C6.58035 12.7064 5 16.5218 5 20.5C5 24.4782 6.58035 28.2936 9.3934 31.1066C12.2064 33.9196 16.0218 35.5 20 35.5Z" fill="white"/>
</svg>
