<svg width="166" height="33" viewBox="0 0 166 33" fill="none" xmlns="http://www.w3.org/2000/svg">
<g clip-path="url(#clip0_2_103)">
<path d="M39.876 13.22H43.217C46.039 13.22 47.988 15.154 47.988 17.675V17.701C47.988 20.229 46.039 22.193 43.217 22.193H39.876V13.219V13.22ZM43.217 20.757C45.103 20.757 46.325 19.495 46.325 17.735V17.709C46.325 15.957 45.104 14.657 43.217 14.657H41.45V20.757H43.217ZM50.906 22.197H52.473V13.22H50.899V22.201L50.906 22.197ZM55.595 17.742C55.595 20.341 57.451 22.353 60.251 22.353C61.6266 22.3522 62.9551 21.8515 63.989 20.944L63.982 17.181H60.176V18.558H62.467V20.236C61.8435 20.682 61.0956 20.9209 60.329 20.919H60.297C58.472 20.919 57.247 19.564 57.247 17.711V17.681C57.247 15.962 58.506 14.518 60.161 14.518L60.261 14.517C61.194 14.517 62.042 14.882 62.669 15.478L63.67 14.285C62.7239 13.4388 61.4815 13.0013 60.214 13.068L60.169 13.067C59.5626 13.067 58.9622 13.1878 58.4029 13.4222C57.8436 13.6566 57.3366 13.9999 56.9113 14.4323C56.4861 14.8646 56.1511 15.3772 55.926 15.9403C55.7008 16.5034 55.59 17.1057 55.6 17.712V17.734L55.595 17.742ZM67.569 22.19H69.147V13.22H67.569V22.201V22.19ZM75.028 22.19H76.606V14.683H79.454V13.22H72.177V14.683H75.021V22.201L75.028 22.19ZM84.265 13.146H85.728L89.671 22.19H88.011L87.101 20.018H82.85L81.929 22.19H80.318L84.265 13.146ZM86.522 18.622L84.978 15.032L83.434 18.622H86.522ZM92.463 22.186H98.756V20.757H94.056V13.22H92.478V22.201L92.463 22.186ZM107.15 13.209H111.134C111.606 13.1809 112.078 13.2461 112.525 13.4009C112.971 13.5557 113.383 13.797 113.736 14.111C114.193 14.592 114.476 15.248 114.476 15.971L114.475 16.046V16.094C114.475 17.579 113.595 18.452 112.336 18.812L114.757 22.209H112.901L110.699 19.064H108.728V22.194H107.15V13.22V13.209ZM111.03 17.664C112.144 17.664 112.886 17.074 112.886 16.179V16.146C112.886 15.184 112.195 14.661 111.03 14.661H108.743V17.672H111.045L111.03 17.664ZM117.446 22.201H124.159V20.79H119.021V18.377H123.51V16.966H119.021V14.634H124.089V13.223H117.447V22.2L117.446 22.201ZM130.466 13.157H131.925L135.872 22.201H134.205L133.295 20.029H129.051L128.13 22.201H126.511L130.466 13.157ZM132.72 18.633L131.183 15.043L129.642 18.633H132.731H132.72ZM138.501 22.197H144.79V20.756H140.064V13.219H138.497V22.2L138.501 22.197ZM149.056 22.197H150.645V14.682H153.489V13.219H146.212V14.682H149.056V22.2V22.197ZM160.394 22.197H161.998V18.618L165.555 13.22H163.751L161.2 17.207L158.69 13.231H156.834L160.398 18.666V22.208L160.394 22.197Z" fill="#6B6B6B"/>
<path d="M25.426 5.02202V7.66902L27.349 8.23302V10.895L25.422 10.524V8.22602L23.495 7.76902V4.26802L17.707 2.00702V7.33502L15.78 6.86702V1.24202L13.861 0.499023V32.499L15.788 31.716V27.632L17.715 27.045V30.943L29.284 26.235V6.53202L25.426 5.02202ZM19.634 5.97302L21.565 6.53702V9.73402L19.634 9.36302V5.97702V5.97302ZM15.776 10.428L17.703 10.714V13.922L15.776 13.803V10.439V10.428ZM17.707 23.519L15.776 23.89V20.396L17.707 20.177V23.519ZM21.564 24.039L19.633 24.503V18.388L17.706 18.518V15.548L19.633 15.581V18.388L21.564 18.262V24.039ZM21.564 12.604L23.495 12.812V15.66L21.564 15.627V12.604ZM25.426 24.703L23.495 25.29V22.32L25.426 21.93V24.689V24.703ZM27.356 21.551L25.425 21.945V14.174L27.356 14.304V21.548V21.551Z" fill="#6B6B6B"/>
<path d="M0.865967 6.63297V26.036L12.116 31.961V0.810974L0.865967 6.63297Z" fill="#6B6B6B"/>
</g>
<defs>
<clipPath id="clip0_2_103">
<rect width="165" height="32" fill="white" transform="translate(0.865967 0.5)"/>
</clipPath>
</defs>
</svg>
