<svg width="245" height="117" viewBox="0 0 245 117" fill="none" xmlns="http://www.w3.org/2000/svg">
<g clip-path="url(#clip0_2_98)">
<path d="M166.533 15.3303V44.8604L159.804 47.1811V13.0073L139.62 5.90879V54.2852L132.958 56.6059V3.58584L122.866 0L112.773 3.58584V56.6059L106.045 54.2852V5.90879L85.9268 13.0073V47.1811L79.1987 44.8604V15.3303L72.4705 17.651V49.6415L92.5888 56.6736V17.7896L99.3169 15.3995V59.0658L119.502 66.0978V8.35643L122.868 7.1606L126.232 8.35643V66.0978L146.35 59.0658V15.3995L153.078 17.7896V56.6736L173.263 49.6415V17.651L166.533 15.3303Z" fill="#6B6B6B"/>
<path d="M5.19929 98.6966H17.1145V95.4621H5.19929V88.4301H23.003V85.1252H1.55347V109.945H23.6328V106.781H5.19929V98.6966ZM99.5498 100.082C99.5498 104.512 96.6066 107.463 92.2582 107.463C88.0517 107.463 85.3863 104.439 85.3863 100.082V85.1756H81.8118V100.221C81.8118 106.97 86.7182 110.699 92.2576 110.699C100.389 110.699 103.051 105.075 103.051 100.221V85.1756H99.5476L99.5498 100.082ZM123.027 109.946H126.532V85.1257H123.027V109.946ZM168.931 104.571L151.409 85.0925H147.903V109.912H151.409V90.3624L169.003 109.912H172.507V85.0925H168.932L168.931 104.571ZM194.065 109.946H197.64V85.1257H194.065V109.946ZM232.125 96.4801L242.427 85.087H238.082L229.878 94.0197L221.957 85.087H217.261L227.215 96.4801L214.809 109.912H219.365L229.529 98.874L239.274 109.912H244.18L232.125 96.4801ZM60.1639 97.5329C60.1639 101.049 58.9718 103.302 56.9396 105.269L55.047 103.018H50.9118L54.2759 106.886C53.4363 107.307 51.9619 107.589 50.772 107.659C45.5154 107.659 41.3095 103.37 41.3095 97.5352V97.4648C41.3095 91.4856 45.2343 87.3406 50.5621 87.2686C55.89 87.2686 60.1628 91.4884 60.1628 97.3927L60.1639 97.5329ZM50.6295 84.1006C43.2661 84.1721 37.5874 89.7251 37.5874 97.5994V97.6698C37.5874 105.406 43.4097 110.892 50.6958 110.82C52.5883 110.82 54.8311 110.327 56.5126 109.484L58.4763 111.804H62.6116L59.1077 107.725C61.9824 105.545 63.8036 101.89 63.8036 97.3905V97.3201C63.8036 89.5844 57.9869 84.0319 50.629 84.0984" fill="#6B6B6B"/>
<path d="M187.104 42.6715V40.9155H188.367C189.068 40.9155 189.489 41.2668 189.489 41.8292C189.489 42.3208 189.068 42.6715 188.367 42.6715H187.104ZM185.564 45.906H187.104V43.9388H188.017L189.417 45.906H191.241L189.628 43.6562C190.47 43.3764 191.031 42.7425 191.031 41.689C191.031 40.2815 189.978 39.5794 188.506 39.5794H185.563L185.564 45.906ZM188.017 48.367C185.003 48.367 182.689 45.906 182.689 42.9536V42.8821C182.689 39.9302 185.003 37.4693 188.017 37.4693C191.099 37.4693 193.413 39.8587 193.413 42.8821C193.413 45.8373 191.099 48.367 188.017 48.367ZM188.017 49.0004C191.45 49.0004 194.115 46.1881 194.115 42.8827C194.115 39.5079 191.452 36.765 188.017 36.765C184.651 36.765 181.985 39.5772 181.985 42.8827V42.9536C181.985 46.2596 184.649 48.9993 188.017 48.9993" fill="#6B6B6B"/>
</g>
<defs>
<clipPath id="clip0_2_98">
<rect width="244" height="117" fill="white" transform="translate(0.865967)"/>
</clipPath>
</defs>
</svg>
