<svg width="25" height="24" viewBox="0 0 25 24" fill="none" xmlns="http://www.w3.org/2000/svg">
<path d="M20.4611 21C18.3111 21 16.2154 20.5207 14.1741 19.562C12.1328 18.6033 10.3244 17.3367 8.74911 15.762C7.17377 14.1873 5.90711 12.379 4.94911 10.337C3.99111 8.295 3.51178 6.19933 3.51111 4.05C3.51111 3.75 3.61111 3.5 3.81111 3.3C4.01111 3.1 4.26111 3 4.56111 3H8.61111C8.84444 3 9.05278 3.075 9.23611 3.225C9.41944 3.375 9.52778 3.56667 9.56111 3.8L10.2111 7.3C10.2444 7.53333 10.2401 7.746 10.1981 7.938C10.1561 8.13 10.0604 8.30067 9.91111 8.45L7.51111 10.9C8.21111 12.1 9.08611 13.225 10.1361 14.275C11.1861 15.325 12.3444 16.2333 13.6111 17L15.9611 14.65C16.1111 14.5 16.3071 14.3877 16.5491 14.313C16.7911 14.2383 17.0284 14.2173 17.2611 14.25L20.7111 14.95C20.9444 15 21.1361 15.1127 21.2861 15.288C21.4361 15.4633 21.5111 15.6673 21.5111 15.9V19.95C21.5111 20.25 21.4111 20.5 21.2111 20.7C21.0111 20.9 20.7611 21 20.4611 21Z" fill="black"/>
</svg>
