<svg width="25" height="24" viewBox="0 0 25 24" fill="none" xmlns="http://www.w3.org/2000/svg">
<path d="M22.4815 6C21.7115 6.35 20.8815 6.58 20.0215 6.69C20.9015 6.16 21.5815 5.32 21.9015 4.31C21.0715 4.81 20.1515 5.16 19.1815 5.36C18.3915 4.5 17.2815 4 16.0215 4C13.6715 4 11.7515 5.92 11.7515 8.29C11.7515 8.63 11.7915 8.96 11.8615 9.27C8.30146 9.09 5.13146 7.38 3.02146 4.79C2.65146 5.42 2.44146 6.16 2.44146 6.94C2.44146 8.43 3.19146 9.75 4.35146 10.5C3.64146 10.5 2.98146 10.3 2.40146 10V10.03C2.40146 12.11 3.88146 13.85 5.84146 14.24C5.21219 14.4122 4.55156 14.4362 3.91146 14.31C4.18307 15.1625 4.715 15.9084 5.43248 16.4429C6.14996 16.9775 7.01691 17.2737 7.91146 17.29C6.39509 18.4904 4.51546 19.1393 2.58146 19.13C2.24146 19.13 1.90146 19.11 1.56146 19.07C3.46146 20.29 5.72146 21 8.14146 21C16.0215 21 20.3515 14.46 20.3515 8.79C20.3515 8.6 20.3515 8.42 20.3415 8.23C21.1815 7.63 21.9015 6.87 22.4815 6Z" fill="black"/>
</svg>
