<svg width="60" height="60" viewBox="0 0 60 60" fill="none" xmlns="http://www.w3.org/2000/svg">
<path d="M30 17.5C31.3807 17.5 32.5 16.3807 32.5 15C32.5 13.6193 31.3807 12.5 30 12.5C28.6193 12.5 27.5 13.6193 27.5 15C27.5 16.3807 28.6193 17.5 30 17.5Z" fill="white"/>
<path d="M15 42.5H45V47.5H15V42.5ZM25 29.575L31.98 36.56L41.81 26.7225L45 30V20H35L38.275 23.1875L31.9775 29.485L25 22.5L15 32.5L18.535 36.035L25 29.575Z" fill="white"/>
<path d="M47.5 7.5H39.255C39.0095 7.13036 38.7424 6.77557 38.455 6.4375L38.43 6.4075C36.5932 4.26813 34.0089 2.91071 31.205 2.6125C30.4088 2.46091 29.5912 2.46091 28.795 2.6125C25.9911 2.91071 23.4068 4.26813 21.57 6.4075L21.545 6.4375C21.2577 6.77477 20.9905 7.12872 20.745 7.4975L12.5 7.5C10.5115 7.50199 8.60498 8.2928 7.19889 9.6989C5.7928 11.105 5.00199 13.0115 5 15V50C5.00199 51.9885 5.7928 53.895 7.19889 55.3011C8.60498 56.7072 10.5115 57.498 12.5 57.5H47.5C49.4885 57.498 51.395 56.7072 52.8011 55.3011C54.2072 53.895 54.998 51.9885 55 50V15C54.998 13.0115 54.2072 11.105 52.8011 9.6989C51.395 8.2928 49.4885 7.50199 47.5 7.5ZM50 50C50 50.663 49.7366 51.2989 49.2678 51.7678C48.7989 52.2366 48.163 52.5 47.5 52.5H12.5C11.8372 52.4993 11.2017 52.2357 10.733 51.767C10.2643 51.2983 10.0007 50.6628 10 50V15C10.0007 14.3372 10.2643 13.7017 10.733 13.233C11.2017 12.7643 11.8372 12.5007 12.5 12.5H23.875C24.1619 11.0871 24.9284 9.81691 26.0447 8.90453C27.1609 7.99215 28.5583 7.49374 30 7.49374C31.4417 7.49374 32.8391 7.99215 33.9553 8.90453C35.0716 9.81691 35.8381 11.0871 36.125 12.5H47.5C48.1628 12.5007 48.7983 12.7643 49.267 13.233C49.7357 13.7017 49.9993 14.3372 50 15V50Z" fill="white"/>
</svg>
