<svg width="50" height="56" viewBox="0 0 50 56" fill="none" xmlns="http://www.w3.org/2000/svg">
<path d="M42.5 5.5H34.255C34.0095 5.13036 33.7424 4.77557 33.455 4.4375L33.43 4.4075C31.5932 2.26813 29.0089 0.910714 26.205 0.612504C25.4088 0.460912 24.5912 0.460912 23.795 0.612504C20.9911 0.910714 18.4068 2.26813 16.57 4.4075L16.545 4.4375C16.2577 4.77477 15.9905 5.12872 15.745 5.4975L7.5 5.5C5.51149 5.50199 3.60498 6.2928 2.19889 7.6989C0.7928 9.10499 0.00198554 11.0115 0 13V48C0.00198554 49.9885 0.7928 51.895 2.19889 53.3011C3.60498 54.7072 5.51149 55.498 7.5 55.5H42.5C44.4885 55.498 46.395 54.7072 47.8011 53.3011C49.2072 51.895 49.998 49.9885 50 48V13C49.998 11.0115 49.2072 9.10499 47.8011 7.6989C46.395 6.2928 44.4885 5.50199 42.5 5.5ZM45 48C45 48.663 44.7366 49.2989 44.2678 49.7678C43.7989 50.2366 43.163 50.5 42.5 50.5H7.5C6.83716 50.4993 6.20166 50.2357 5.73296 49.767C5.26427 49.2983 5.00066 48.6628 5 48V13C5.00066 12.3372 5.26427 11.7017 5.73296 11.233C6.20166 10.7643 6.83716 10.5007 7.5 10.5H18.875C19.1619 9.08714 19.9284 7.81691 21.0447 6.90453C22.1609 5.99215 23.5583 5.49374 25 5.49374C26.4417 5.49374 27.8391 5.99215 28.9553 6.90453C30.0716 7.81691 30.8381 9.08714 31.125 10.5H42.5C43.1628 10.5007 43.7983 10.7643 44.267 11.233C44.7357 11.7017 44.9993 12.3372 45 13V48Z" fill="white"/>
</svg>
