<svg width="19" height="20" viewBox="0 0 19 20" fill="none" xmlns="http://www.w3.org/2000/svg">
<path opacity="0.2" d="M11.3957 7.72107V12.2794H6.83743V7.72107H11.3957Z" fill="#6C6C6C"/>
<path d="M14.8118 3.16272H3.41608C3.11384 3.16272 2.82399 3.28278 2.61028 3.49649C2.39657 3.7102 2.2765 4.00006 2.2765 4.30229V15.698C2.2765 16.0002 2.39657 16.2901 2.61028 16.5038C2.82399 16.7175 3.11384 16.8376 3.41608 16.8376H14.8118C15.114 16.8376 15.4039 16.7175 15.6176 16.5038C15.8313 16.2901 15.9514 16.0002 15.9514 15.698V4.30229C15.9514 4.00006 15.8313 3.7102 15.6176 3.49649C15.4039 3.28278 15.114 3.16272 14.8118 3.16272ZM14.8118 15.698H3.41608V4.30229H14.8118V15.698ZM11.3931 7.15122H6.83479C6.68367 7.15122 6.53874 7.21125 6.43189 7.3181C6.32503 7.42496 6.265 7.56989 6.265 7.721V12.2793C6.265 12.4304 6.32503 12.5753 6.43189 12.6822C6.53874 12.789 6.68367 12.8491 6.83479 12.8491H11.3931C11.5442 12.8491 11.6891 12.789 11.796 12.6822C11.9028 12.5753 11.9629 12.4304 11.9629 12.2793V7.721C11.9629 7.56989 11.9028 7.42496 11.796 7.3181C11.6891 7.21125 11.5442 7.15122 11.3931 7.15122ZM10.8233 11.7095H7.40457V8.29079H10.8233V11.7095Z" fill="#6C6C6C"/>
</svg>
