<svg width="73" height="60" viewBox="0 0 73 60" fill="none" xmlns="http://www.w3.org/2000/svg">
<path d="M70.9391 52.2517C69.5527 50.8867 52.7526 44.3883 49.7041 43.1624C46.6717 41.958 45.4619 38.6205 45.4619 38.6205C45.4619 38.6205 44.0969 39.3753 44.0969 37.2555C44.0969 35.1331 45.4619 38.6205 46.8269 30.4359C46.8269 30.4359 50.6141 29.3734 49.862 20.5866H48.952C48.952 20.5866 51.227 11.1922 48.952 8.01263C46.669 4.833 45.7751 2.71326 40.7621 1.19303C35.7571 -0.324516 37.5771 -0.022077 33.9425 0.133157C30.3025 0.285715 27.2728 2.25558 27.2728 3.31278C27.2728 3.31278 24.9978 3.46534 24.0931 4.37533C23.1832 5.28532 21.6683 9.52482 21.6683 10.5847C21.6683 11.6446 22.4257 18.7746 23.1832 20.2842L22.2812 20.5786C21.5238 29.368 25.3109 30.4333 25.3109 30.4333C26.6759 38.6178 28.0409 35.1304 28.0409 37.2528C28.0409 39.3726 26.6759 38.6178 26.6759 38.6178C26.6759 38.6178 25.4635 41.9527 22.4337 43.1598C19.404 44.3722 2.58519 50.8867 1.21752 52.249C-0.147466 53.6408 0.00509182 60 0.00509182 60H32.2188L34.5688 50.7395L32.4811 48.6519L36.0756 45.052L39.6701 48.6492L37.5825 50.7368L39.9324 59.9973H72.1461C72.1461 59.9973 72.3148 53.6327 70.9337 52.2436L70.9391 52.2517Z" fill="white"/>
</svg>
