<svg width="142" height="71" viewBox="0 0 142 71" fill="none" xmlns="http://www.w3.org/2000/svg">
<path d="M23.256 60.966H25.394C26.703 60.966 27.639 60.636 27.848 59.443C28.028 58.416 27.441 57.884 26.199 57.884H23.796L23.256 60.966ZM20.722 55.566H27.399C30.083 55.566 31.895 56.759 31.417 59.492C30.997 61.896 29.245 63.287 25.65 63.287H22.85L22.108 67.529H18.629L20.722 55.566Z" fill="#6B6B6B"/>
<path d="M36.001 60.668H38.767C40.359 60.668 40.958 60.172 41.119 59.26C41.322 58.102 40.448 57.885 38.775 57.885H36.489L36.001 60.668ZM33.414 55.566H40.72C43.603 55.566 45.062 56.611 44.697 58.697C44.429 60.22 43.002 61.283 41.157 61.595L41.151 61.63C42.151 61.696 43.053 61.927 43.322 62.673C43.71 63.767 43.336 66.284 43.615 67.528H39.921C39.742 66.368 40.094 64.645 39.907 63.815C39.788 63.27 39.306 62.987 37.915 62.987H35.594L34.799 67.528H31.32L33.414 55.566Z" fill="#6B6B6B"/>
<path d="M51.842 65.39C54.492 65.39 55.675 63.652 56.043 61.546C56.412 59.442 55.838 57.702 53.187 57.702C50.536 57.702 49.354 59.442 48.986 61.546C48.617 63.652 49.191 65.39 51.842 65.39ZM53.616 55.252C58.62 55.252 60.255 57.936 59.623 61.547C58.99 65.158 56.418 67.844 51.414 67.844C46.409 67.844 44.775 65.158 45.407 61.547C46.04 57.935 48.613 55.252 53.616 55.252Z" fill="#6B6B6B"/>
<path d="M62.216 55.566H63.938L62.083 66.17H68.975L68.737 67.529H60.122L62.216 55.566Z" fill="#6B6B6B"/>
<path d="M75.339 66.484C78.237 66.484 80.591 64.496 81.107 61.546C81.623 58.596 79.964 56.61 77.066 56.61C74.168 56.61 71.814 58.596 71.298 61.546C70.781 64.496 72.439 66.484 75.339 66.484ZM77.304 55.252C82.324 55.252 83.427 58.697 82.929 61.547C82.431 64.399 80.12 67.844 75.101 67.844C70.08 67.844 68.976 64.399 69.476 61.547C69.974 58.697 72.282 55.252 77.304 55.252Z" fill="#6B6B6B"/>
<path d="M91.641 61.283H97.192L96.247 66.683C94.097 67.511 92.149 67.843 90.278 67.843C85.424 67.843 83.732 64.909 84.32 61.546C84.845 58.548 87.295 55.251 92.249 55.251C95.612 55.251 97.561 56.228 97.534 58.663H95.712C95.564 57.14 94.116 56.61 92.177 56.61C88.814 56.61 86.623 58.811 86.147 61.53C85.686 64.165 87.104 66.483 90.584 66.483C91.893 66.483 93.453 66.184 94.693 65.721L95.232 62.639H91.404L91.641 61.283Z" fill="#6B6B6B"/>
<path d="M100.594 55.566H102.317L100.225 67.529H98.502L100.594 55.566Z" fill="#6B6B6B"/>
<path d="M113.361 59.132C113.488 57.458 111.863 56.995 109.925 56.995C108.218 56.995 106.628 57.839 106.396 59.165C106.283 59.81 106.566 60.474 107.996 60.722L112.32 61.486C114.201 61.816 114.9 62.925 114.644 64.4C114.226 66.787 111.835 68.226 108.29 68.226C104.894 68.226 103.144 66.968 103.388 64.333H105.21C104.98 65.94 106.358 66.868 108.626 66.868C111.112 66.868 112.659 65.889 112.888 64.583C113.468 61.269 103.781 64.267 104.656 59.263C105.06 56.96 107.246 55.636 110.511 55.636C112.995 55.636 115.499 56.38 115.183 59.132H113.361Z" fill="#6B6B6B"/>
<path d="M120.058 28.388C116.816 31.144 118.177 35.493 119.511 37.956C121.179 41.036 119.048 45.571 116.132 48.138C123.218 44.109 128.062 36.594 128.327 27.922C126.124 26.48 122.435 26.369 120.058 28.388Z" fill="#6B6B6B"/>
<path d="M99.5711 35.3199C94.9231 31.3799 90.8521 33.2859 88.0771 36.5419C85.2651 39.847 89.1411 40.8349 94.4341 42.0359C98.4301 42.9459 97.9381 48.3699 98.3031 49.5929C103.073 41.8879 101.7 37.124 99.5711 35.3199Z" fill="#6B6B6B"/>
<path d="M110.628 10.277C118.554 16.426 111.585 19.571 111.585 19.571C116.087 23.394 120.636 16.071 125.524 20.255C126.819 21.362 127.643 22.702 128.256 24.144C127.434 14.142 120.508 5.87302 111.207 3.06702C107.56 4.66902 106.101 6.76602 110.628 10.277Z" fill="#6B6B6B"/>
<path d="M91.484 32.52C89.687 27.606 91.97 25.344 99.779 19.785C109.644 12.764 94.215 15.254 100.494 8.93102C102.719 6.69202 105.844 4.95302 108.15 3.38702C106.877 3.17902 105.572 3.06702 104.24 3.06702C90.928 3.06702 80.134 13.86 80.134 27.171C80.134 27.706 80.157 28.235 80.193 28.761C83.825 32.13 88.332 34.316 91.484 32.52Z" fill="#6B6B6B"/>
</svg>
